<?xml version="1.0" standalone="no"?><!DOCTYPE svg PUBLIC "-//W3C//DTD SVG 1.1//EN" "http://www.w3.org/Graphics/SVG/1.1/DTD/svg11.dtd"><svg t="1762995218942" class="icon" viewBox="0 0 1024 1024" version="1.1" xmlns="http://www.w3.org/2000/svg" p-id="6615" xmlns:xlink="http://www.w3.org/1999/xlink" width="200" height="200"><path d="M705.578667 69.546667c-5.418667-18.176 12.586667-35.242667 29.226666-26.24A510.336 510.336 0 0 1 1002.666667 492.416c0 281.813333-228.437333 510.293333-510.250667 510.293333a510.165333 510.165333 0 0 1-448.682667-267.221333c-9.088-16.725333 8.192-34.773333 26.453334-29.269333a509.013333 509.013333 0 0 0 147.498666 21.674666c281.813333 0 510.208-228.394667 510.208-510.293333 0-49.962667-8.32-100.992-22.314666-148.053333z m100.437333 126.08l0.298667 10.965333 0.128 11.093333C806.4 542.805333 542.848 806.4 217.6 806.4c-7.338667 0-14.72-0.128-22.101333-0.426667A431.786667 431.786667 0 0 0 924.16 492.373333h0.042667a431.274667 431.274667 0 0 0-118.144-296.832h-0.042667zM394.368 256.938667h-0.042667l-69.290666 36.48a12.8 12.8 0 0 1-18.56-13.482667l12.032-70.613333a12.8 12.8 0 0 0-3.669334-11.349334l-51.2-49.92a12.8 12.8 0 0 1 7.082667-21.845333l70.869333-10.282667a12.8 12.8 0 0 0 9.642667-6.997333l31.658667-64.213333a12.8 12.8 0 0 1 22.997333 0l31.658667 64.213333a12.8 12.8 0 0 0 9.642666 6.997333l70.869334 10.24a12.8 12.8 0 0 1 7.082666 21.845334L473.898667 197.973333a12.8 12.8 0 0 0-3.669334 11.349334l12.117334 70.570666a12.8 12.8 0 0 1-18.56 13.525334l-69.376-36.437334h-0.042667z m-111.829333 258.261333a12.8 12.8 0 0 0-11.946667 0l-17.152 9.088a12.8 12.8 0 0 1-18.602667-13.525333l3.328-19.157334a12.8 12.8 0 0 0-3.712-11.349333l-13.952-13.568a12.8 12.8 0 0 1 7.082667-21.802667l19.285333-2.816a12.8 12.8 0 0 0 9.642667-6.997333l8.576-17.493333a12.8 12.8 0 0 1 22.954667 0l8.618666 17.493333a12.8 12.8 0 0 0 9.642667 6.997333l19.285333 2.816a12.8 12.8 0 0 1 7.082667 21.802667l-13.909333 13.568a12.8 12.8 0 0 0-3.712 11.349333l3.285333 19.2a12.8 12.8 0 0 1-18.56 13.482667l-17.237333-9.088z" p-id="6616" fill="#8a8a8a"></path></svg>