<?xml version="1.0" standalone="no"?><!DOCTYPE svg PUBLIC "-//W3C//DTD SVG 1.1//EN" "http://www.w3.org/Graphics/SVG/1.1/DTD/svg11.dtd"><svg t="1762995087656" class="icon" viewBox="0 0 1024 1024" version="1.1" xmlns="http://www.w3.org/2000/svg" p-id="5736" xmlns:xlink="http://www.w3.org/1999/xlink" width="200" height="200"><path d="M512 10.678857a53.394286 53.394286 0 0 1 53.394286 53.321143v67.218286a53.394286 53.394286 0 1 1-106.788572 0V64A53.394286 53.394286 0 0 1 512 10.605714z m354.523429 146.797714a53.394286 53.394286 0 0 1 0 75.483429l-47.542858 47.542857a53.394286 53.394286 0 1 1-75.410285-75.483428l47.542857-47.542858a53.394286 53.394286 0 0 1 75.337143 0zM839.460571 512a53.394286 53.394286 0 0 1 53.394286-53.394286h67.145143a53.394286 53.394286 0 0 1 0 106.788572h-67.218286a53.394286 53.394286 0 0 1-53.321143-53.394286z m-95.890285 231.570286a53.394286 53.394286 0 0 1 75.337143 0l47.542857 47.542857a53.394286 53.394286 0 1 1-75.337143 75.337143l-47.542857-47.469715a53.394286 53.394286 0 0 1 0-75.410285zM512 839.460571a53.394286 53.394286 0 0 1 53.394286 53.394286v67.145143a53.394286 53.394286 0 0 1-106.788572 0v-67.218286a53.394286 53.394286 0 0 1 53.394286-53.321143z m-231.570286-95.890285a53.394286 53.394286 0 0 1 0 75.410285l-47.542857 47.542858a53.394286 53.394286 0 1 1-75.337143-75.483429l47.469715-47.542857a53.394286 53.394286 0 0 1 75.410285 0zM10.678857 512a53.394286 53.394286 0 0 1 53.321143-53.394286h67.218286a53.394286 53.394286 0 1 1 0 106.788572h-67.291429A53.394286 53.394286 0 0 1 10.752 512z m146.797714-354.523429a53.394286 53.394286 0 0 1 75.483429 0l47.542857 47.542858a53.394286 53.394286 0 1 1-75.483428 75.410285l-47.542858-47.542857a53.394286 53.394286 0 0 1 0-75.337143zM512 202.678857a309.394286 309.394286 0 1 0 0 618.642286 309.394286 309.394286 0 0 0 0-618.642286zM309.394286 512a202.605714 202.605714 0 1 1 405.211428 0 202.605714 202.605714 0 0 1-405.211428 0z" fill="#d81e06" p-id="5737"></path></svg>