<?xml version="1.0" standalone="no"?><!DOCTYPE svg PUBLIC "-//W3C//DTD SVG 1.1//EN" "http://www.w3.org/Graphics/SVG/1.1/DTD/svg11.dtd"><svg t="1763001943325" class="icon" viewBox="0 0 1024 1024" version="1.1" xmlns="http://www.w3.org/2000/svg" p-id="61600" xmlns:xlink="http://www.w3.org/1999/xlink" width="200" height="200"><path d="M22.528 307.24096l2.72384 4.97664v3.23584c0.24576 2.72384 0.24576 5.48864 0 8.21248 0.98304 54.86592 1.59744 109.71136 1.8432 164.57728l0.12288 54.84544v359.75168c-1.20832 16.83456 0.90112 33.73056 6.18496 49.7664 2.82624 7.33184 6.84032 14.1312 11.8784 20.13184a74.1376 74.1376 0 0 0 51.11808 26.17344l4.58752 0.2048h13.1072c18.98496 0 38.07232 0.55296 57.20064 0.9216l28.69248 0.32768h149.504l198.0416 1.2288 278.69184 2.00704v-1.49504l75.48928-0.75776v9.46176h-4.93568l-141.59872 6.71744 1.98656 4.7104H150.24128c-19.80416-0.22528-44.544-0.73728-69.30432-3.21536a86.8352 86.8352 0 0 1-75.48928-74.62912 605.5936 605.5936 0 0 1-3.1744-53.12512l-0.06144-13.04576 0.02048 2.88768-1.49504-26.78784v-22.89664l1.4336-27.29984C2.10944 755.36384 2.048 706.60096 2.23232 660.02944c0.24576-70.16448 2.4576-140.32896 2.4576-210.47296 0.43008-26.43968 1.2288-52.89984 4.7104-79.64672l1.98656-13.4144v-11.18208c0.16384-5.14048 0.88064-10.28096 1.3312-15.50336l0.4096-7.8848v-14.68416H22.528zM982.6304 985.43616l-13.1072 15.42144a54.0672 54.0672 0 0 1-27.56608 12.04224l-4.36224 0.4096-1.7408-10.4448 46.77632-17.42848zM917.8112 0.24576l9.89184 1.49504c6.84032 0.9216 13.6192 2.2528 20.29568 3.97312a84.91008 84.91008 0 0 1 64.86016 69.16096c1.6384 10.79296 2.49856 21.7088 2.58048 32.62464l-0.1024 8.192v63.42656h-2.72384l1.47456 183.84896h6.4512v83.59936c-0.47104 2.10944-1.04448 4.17792-1.7408 6.22592a24.9856 24.9856 0 0 0-1.59744 5.05856l-0.38912 2.6624v239.8208a1898.74176 1898.74176 0 0 1-2.9696 64.9216c-0.32768 7.4752-0.98304 14.82752-1.39264 22.20032l-0.32768 11.14112h1.96608c1.39264 14.17216 1.65888 28.40576 0.8192 42.5984l-0.8192 10.6496v58.44992c1.88416 15.27808 0.4096 30.72-4.28032 45.32224l-1.90464 5.4272h-2.23232v2.00704h-9.6256v-16.91648a311.296 311.296 0 0 0 2.99008-45.3632l-0.28672-11.3664v-215.4496h-1.7408l-1.96608-5.2224V318.6688c0.22528-12.63616 1.78176-61.44 1.96608-78.7456V172.6464c-0.49152-27.11552-1.96608-53.98528-1.96608-81.1008a69.75488 69.75488 0 0 0-65.4336-68.03456l-3.8912-0.12288h-72.00768v-2.74432h-6.94272c-10.77248 0.94208-21.52448 1.16736-32.39936 1.2288h-10.91584l-339.3536 1.51552h-145.28512c-19.80416 0-36.39296-1.49504-51.97824-1.49504a652.32896 652.32896 0 0 0-29.2864-1.3312l-14.5408-0.16384H97.52576a79.29856 79.29856 0 0 0-56.9344 28.11904 60.35456 60.35456 0 0 0-17.18272 41.53344l0.1024 4.23936v62.2592a45.99808 45.99808 0 0 1-1.6384 10.48576l-1.08544 3.3792H10.6496v-7.45472c-0.57344-4.3008-1.39264-8.6016-1.78176-12.9024l-0.2048-4.28032L7.168 130.8672a279.79776 279.79776 0 0 1-1.96608-41.5744C6.63552 42.74176 43.86816 5.61152 89.7024 4.03456l4.34176-0.04096h96.27648c25.64096-2.048 52.736-2.21184 86.99904-2.2528h141.2096A6456.9344 6456.9344 0 0 1 561.152 0.3072l47.5136-0.04096h309.16608zM474.99264 80.60928l279.69536 2.47808h101.4784c12.04224 1.536 23.90016 4.3008 35.40992 8.21248 5.5296 1.20832 10.87488 3.21536 15.83104 5.98016 9.0112 4.85376 15.91296 12.92288 19.31264 22.6304 0.2048 0.77824 0.63488 1.47456 1.2288 1.98656 6.81984 4.1984 8.94976 10.77248 9.33888 17.75616l0.08192 2.6624-4.46464 1.72032c-0.47104 9.6256-0.47104 19.2512 0 28.8768 0.90112 6.98368 2.37568 13.90592 4.46464 20.64384 0.14336 2.80576 0.14336 5.632 0 8.45824-6.2464-0.22528-6.8608 1.96608-6.92224 6.38976v30.16704a10.4448 10.4448 0 0 0 3.6864 5.7344 9.99424 9.99424 0 0 1-1.47456 10.19904 7.49568 7.49568 0 0 0 0 10.19904c0.24576 0.98304 0.32768 1.98656 0.24576 2.99008l-0.24576 1.49504v67.42016a128.512 128.512 0 0 0 0 43.54048c1.72032 10.17856 2.4576 20.50048 2.23232 30.84288 0 14.92992-1.98656 26.35776-1.98656 45.03552 0 18.6368 0.24576 35.57376 0 55.97184-0.2048 16.9984-1.4336 35.36896-1.8432 51.69152l-0.14336 9.50272v55.23456c0.26624 10.69056 1.49504 21.13536 1.49504 31.60064 0 5.46816-2.72384 10.93632-2.72384 16.40448-0.4096 7.35232 0.16384 14.72512 1.7408 21.9136 1.37216 10.5472 1.6384 20.43904 1.72032 30.49472v20.25472c-4.44416 1.78176-5.69344 4.17792-3.91168 10.07616l0.69632 2.10944 2.23232-4.73088v1.98656c3.4816 25.88672 0 52.49024 0 77.37344 0.73728 15.93344 2.23232 32.09216 2.23232 48.0256 0.6144 5.85728 0.6144 11.776 0 17.65376a26.624 26.624 0 0 1-12.14464 19.90656 118.92736 118.92736 0 0 0-13.84448 11.20256 18.49344 18.49344 0 0 1-4.25984 1.08544l-2.19136 0.14336-2.9696 3.9936-6.92224-5.2224v6.4512h-1.49504c-1.96608-2.9696-3.21536-8.94976-5.69344-8.94976a49.2544 49.2544 0 0 0-17.05984 0c-0.94208 0-1.59744 1.82272-2.37568 2.72384l-0.86016 0.512-9.15456 9.216-2.9696-5.98016 4.7104-3.97312-31.4368-4.23936h-6.94272l-92.32384 4.7104h-13.1072v8.72448h-1.49504c-0.24576-10.19904-7.65952-8.704-14.11072-8.704-28.4672 0.49152-57.15968 1.7408-85.87264 1.7408a664.94464 664.94464 0 0 0-91.83232 3.4816 193.57696 193.57696 0 0 1-16.50688 0.34816l-8.25344-0.34816h-83.90656a6.656 6.656 0 0 0-3.21536 0c-9.66656 7.72096-21.05344 3.23584-31.68256 3.23584-16.09728-0.24576-32.68608-2.49856-49.52064-2.49856a24.65792 24.65792 0 0 0-7.41376 2.00704c-2.47808-3.23584-7.168-1.49504-11.38688-1.49504-15.9744 0.55296-32.07168 1.67936-48.10752 2.19136l-15.99488 0.28672H164.84352a83.29216 83.29216 0 0 1-83.90656-72.15104 305.80736 305.80736 0 0 1-0.53248-36.22912l0.53248-9.05216V504.03328c0.24576-15.91296 0.73728-32.82944 1.98656-49.7664 1.06496-6.32832 2.64192-12.55424 4.7104-18.6368 2.51904-10.24 2.70336-10.91584-5.9392-13.78304l-1.98656-0.65536H81.92c6.02112 1.55648 8.41728-0.69632 8.84736-6.06208l0.06144-1.90464v-52.736c-0.59392-20.50048-2.12992-41.79968-2.72384-62.23872l-0.24576-15.1552v-16.65024c0.6144-3.6864 1.4336-7.3728 2.47808-10.93632a166.03136 166.03136 0 0 0 0-19.16928c-0.16384-6.63552-0.75776-13.37344-1.14688-20.15232l-0.32768-10.19904v-1.98656c0.7168-3.95264 0.7168-7.9872 0-11.93984 0-2.99008 2.74432-22.7328 3.15392-31.21152l0.06144-1.88416v-20.39808c0-0.49152-1.49504-1.00352-1.49504-2.74432 2.6624-13.68064 9.09312-26.35776 18.57536-36.5568a26.4192 26.4192 0 0 1 12.86144-5.98016 265.6256 265.6256 0 0 1 30.16704-6.00064l10.17856-1.2288h61.89056c21.6064-0.8192 43.1104-2.29376 64.59392-3.64544l32.17408-1.80224h153.96864zM453.632 264.192l-4.3008 9.8304c8.6016 7.9872 8.6016 7.9872 14.7456 14.4384 6.144 6.4512 6.144 6.4512 10.752 13.2096 4.608 6.7584 4.608 6.7584 7.9872 14.4384 3.3792 7.68 3.3792 7.68 7.0656 18.1248 3.072 9.216 3.072 9.216 4.9152 14.1312 1.47456 3.93216 1.47456 3.93216 3.72736 5.50912l1.18784 0.63488h-113.0496c-11.0592-7.9872-11.0592-7.9872-25.4976-14.4384-14.4384-6.4512-14.4384-6.4512-35.9424-13.2096 0.6144 9.8304 0.6144 9.8304 0.9216 21.504 0.22528 8.74496 0.22528 8.74496 0.28672 23.04l0.02048 395.9808c-11.6736 1.2288-11.6736 1.2288-22.7328 3.072-11.0592 1.8432-11.0592 1.8432-22.7328 3.6864 4.3008 14.1312 4.3008 14.1312 9.5232 28.2624s5.2224 14.1312 13.2096 29.4912c3.072 6.144 3.072 6.144 7.68 6.4512 4.608 0.3072 4.608 0.3072 7.68-3.3792 7.9872-9.216 7.9872-9.216 20.2752-17.8176s12.288-8.6016 35.0208-18.1248c22.7328-9.5232 22.7328-9.5232 59.2896-21.8112 33.50528-11.264 33.50528-11.264 83.80416-26.66496l9.27744-2.82624-2.4576-12.288c-39.3216 6.7584-39.3216 6.7584-74.0352 12.288-23.1424 3.6864-23.1424 3.6864-45.8752 7.3728l-22.6304 3.6864v-192.9216h93.3888c13.5168 55.296 13.5168 55.296 30.1056 94.6176 16.5888 39.3216 16.5888 39.3216 42.3936 69.4272 25.8048 30.1056 25.8048 30.1056 63.8976 54.0672 38.0928 23.9616 38.0928 23.9616 94.6176 47.9232 6.7584 3.072 6.7584 3.072 9.8304 2.7648 3.072-0.3072 3.072-0.3072 5.5296-4.608 5.5296-8.6016 5.5296-8.6016 11.0592-14.7456s5.5296-6.144 14.7456-10.752c9.216-4.608 9.216-4.608 23.04-7.68 11.85792-2.64192 11.85792-2.64192 29.34784-5.26336l5.98016-0.88064v-10.4448c-85.4016-11.0592-85.4016-11.0592-141.6192-33.1776s-56.2176-22.1184-91.2384-55.9104c35.0208-14.7456 35.0208-14.7456 60.5184-26.112 25.4976-11.3664 25.4976-11.3664 43.9296-18.1248 11.6736-4.3008 11.6736-4.3008 18.7392-6.144 7.0656-1.8432 7.0656-1.8432 14.4384 0 10.4448 3.072 10.4448 3.072 12.5952-1.8432 2.1504-4.9152 2.1504-4.9152-4.608-11.6736-10.4448-11.0592-10.4448-11.0592-20.2752-21.1968-9.8304-10.1376-9.8304-10.1376-23.9616-23.6544-36.864 33.792-36.864 33.792-64.8192 56.2176C581.4272 661.0944 581.4272 661.0944 559.3088 675.84c-20.8896-23.3472-20.8896-23.3472-37.4784-48.5376-14.52032-22.03648-14.52032-22.03648-26.68544-52.55168l-3.42016-8.88832h133.3248v8.6016c0 7.3728 0 7.3728 1.8432 9.216 1.8432 1.8432 1.8432 1.8432 7.3728 0.6144 8.6016-2.4576 8.6016-2.4576 20.8896-6.144 12.288-3.6864 12.288-3.6864 21.504-8.6016 6.144-3.072 6.144-3.072 7.68-6.4512 1.29024-2.80576 1.29024-2.80576 1.49504-9.25696l0.04096-2.72384v-169.5744c9.216-5.5296 9.216-5.5296 14.1312-9.5232 4.9152-3.9936 4.9152-3.9936 5.5296-7.0656 0.6144-3.072 0.6144-3.072-2.4576-6.4512s-3.072-3.3792-9.216-8.2944c-9.216-7.3728-9.216-7.3728-16.5888-12.288-7.3728-4.9152-7.3728-4.9152-19.6608-12.288-8.6016-5.5296-8.6016-5.5296-13.2096-5.2224-3.95264 0.26624-3.95264 0.26624-8.13056 6.16448L634.88 328.704l-15.36 25.8048h-93.3888c10.4448-5.5296 10.4448-5.5296 15.36-11.6736 4.9152-6.144 4.9152-6.144 6.7584-22.1184 1.2288-11.0592 1.2288-11.0592-2.1504-19.3536-3.3792-8.2944-3.3792-8.2944-14.1312-14.7456-10.752-6.4512-10.752-6.4512-29.7984-11.6736-16.67072-4.56704-16.67072-4.56704-41.32864-9.37984l-7.20896-1.37216z m171.4176 208.2816v74.3424H381.7472v-74.3424h243.3024z m0-97.0752v77.4144H381.7472v-77.4144h243.3024z" fill="#E04343" p-id="61601"></path></svg>